<?xml version="1.0" encoding="utf-8"?>
<!-- Generator: Adobe Illustrator 21.0.2, SVG Export Plug-In . SVG Version: 6.00 Build 0)  -->
<svg version="1.1" id="Layer_1" xmlns="http://www.w3.org/2000/svg" xmlns:xlink="http://www.w3.org/1999/xlink" x="0px" y="0px"
	 viewBox="0 0 147.1 137" style="enable-background:new 0 0 147.1 137;" xml:space="preserve">
<style type="text/css">
	.st0{fill-rule:evenodd;clip-rule:evenodd;}
</style>
<path fill="white" class="st0" d="M112.1,87.3H89.3V76.2h22.8V87.3L112.1,87.3z M112.1,70.2H89.3V59.1h22.8V70.2L112.1,70.2z M80.4,104.4H57.6
	V93.3h22.8V104.4L80.4,104.4z M80.4,87.3H57.6V76.2h22.8V87.3L80.4,87.3z M80.4,70.2H57.6V59.1h22.8V70.2L80.4,70.2z M48.6,104.4
	H25.8V93.3h22.8V104.4L48.6,104.4z M48.6,87.3H25.8V76.2h22.8V87.3L48.6,87.3z M48.6,70.2H25.8V59.1h22.8V70.2L48.6,70.2z M29.9,7.2
	c0-4,3.2-7.2,7.2-7.2c4,0,7.2,3.2,7.2,7.2v22c0,4-3.2,7.2-7.2,7.2c-4,0-7.2-3.2-7.2-7.2V7.2L29.9,7.2z M91.3,7.2
	c0-4,3.2-7.2,7.2-7.2c4,0,7.2,3.2,7.2,7.2v22c0,4-3.2,7.2-7.2,7.2c-4,0-7.2-3.2-7.2-7.2V7.2L91.3,7.2z M9.4,46.9h116.8
	c0.8,0,1.4,0.7,1.4,1.4v67.3c0,0.8-0.7,1.4-1.4,1.4H9.4c-0.8,0-1.4-0.7-1.4-1.4V48.3C7.9,47.5,8.6,46.9,9.4,46.9L9.4,46.9z
	 M2.5,15.5h23.4v13.7c0,6.2,5,11.2,11.2,11.2c6.2,0,11.2-5,11.2-11.2V15.5h39.1v13.7c0,6.2,5,11.2,11.2,11.2c6.2,0,11.2-5,11.2-11.2
	V15.5H133c1.4,0,2.5,1.1,2.5,2.5v104.4c0,1.4-1.1,2.5-2.5,2.5H2.5c-1.4,0-2.5-1.1-2.5-2.5V18C0,16.6,1.1,15.5,2.5,15.5L2.5,15.5z
	 M140.5,23.4c3.7,0,6.6,3,6.6,6.6v100.3c0,3.7-3,6.6-6.6,6.6H14.1c-3.7,0-6.6-3-6.6-6.6v-1.3H133c3.7,0,6.6-3,6.6-6.6V23.4H140.5
	L140.5,23.4z"/>
</svg>
