<?xml version="1.0" encoding="utf-8"?>
<!-- Generator: Adobe Illustrator 21.0.2, SVG Export Plug-In . SVG Version: 6.00 Build 0)  -->
<svg version="1.1" id="Layer_1" xmlns="http://www.w3.org/2000/svg" xmlns:xlink="http://www.w3.org/1999/xlink" x="0px" y="0px"
	 viewBox="0 0 189.7 98.5" style="enable-background:new 0 0 189.7 98.5;" xml:space="preserve">
<g>
	<path fill="white" d="M69.2,64.8c0.1-0.1,0.3-0.1,0.4-0.2l-3.5-1.3c-2.2-0.7-5-5.3-5.3-7.9c1.6-1.1,2.8-2.7,3-3.1c1.8-3.2,2.2-6.8,3-10.2
		l1.5-0.9c2-5.5,2.6-10.4,2.4-14.9l-1.1-0.9c0.3-4.1,0.2-11.4-1.8-15c-7.5-13.8-32.1-13.8-39.6,0c-2,3.6-2.1,10.9-1.8,15l-1.1,0.9
		c-0.2,4.5,0.4,9.4,2.4,14.9l1.5,0.9c0.9,3.3,1.2,7,3,10.2c0.3,0.4,1.5,2.1,3,3.1c-0.3,2.7-3.1,7.3-5.3,7.9l-19.6,7.6
		c-3.6,1.1-6.5,4.5-7.4,8.1L0,98.5h52l4.2-22.4C57.6,70.1,64,67,69.2,64.8z"/>
	<path fill="white" d="M184,79.3c-1.8-4.5-4.7-7.3-8.6-8.7c-6-2.1-19.1-4.8-23.6-11c3.7,0.4,4.7,1,8.6,1.9c5.5,1.3,10.2-0.1,14.6-3.8
		c-3.8-0.4-5.9-3-7-6.8c2.7,0.9,4.6,0.1,6.4-1.6c-10.1-6.1-7.1-12.3-6-21c1.8-14.4-9-28.9-24.4-26.1c-9.6-3.2-20.8,1.1-24.9,6.5
		c-4.1,5.4-6.2,12-5.3,20.5c1,8.9,4.4,19.5-3.1,23c0.9,0.8,2,0.8,3.3,0.8c-0.9,3.7-5,5.3-5,5.3c6.5,3.7,14.4,2.4,21.1,1.4
		c-2.2,3-6.5,5.2-11.1,6.9c4.1,2.1,8.1,5,9.2,9.6l4.2,22.4h57.2C189.2,94.7,187,87.1,184,79.3z"/>
	<path fill="white" d="M112.3,68.8c-2.9-1.2-5.8-2.3-7.8-3.5c-1.9-0.6-3.4-3.6-3.6-5.9c3.1-2.2,4.6-4.4,6-10c0.2-0.8,0.7,0,1.4-2
		c1.2-3.7,1.2-7.1,1.1-10.3c0-1.6-0.3-0.3-0.5-2.3c-0.2-2.4,0-6.9-1.5-9.8c-3.1-5.8-8.8-8.3-15.1-8.4c-6.3,0.1-12,2.6-15.1,8.4
		c-1.6,2.9-1.3,7.4-1.5,9.8c-0.2,1.9-0.5,0.7-0.5,2.3c-0.1,3.2-0.1,6.6,1.1,10.3c0.7,2,1.2,1.3,1.4,2c1.5,5.6,2.9,7.7,6,10
		c-0.2,2.3-1.8,5.3-3.6,5.9c-1.1,0.6-2.4,1.2-3.9,1.8c-6,2.5-14.1,5.2-15.3,10.2l-3.3,21.2h34.7h4h30.9l-3.5-21.2
		C122.6,73.4,117.4,70.9,112.3,68.8z"/>
</g>
</svg>
