<?xml version="1.0" encoding="utf-8"?>
<!-- Generator: Adobe Illustrator 21.0.2, SVG Export Plug-In . SVG Version: 6.00 Build 0)  -->
<svg version="1.1" id="Layer_1" xmlns="http://www.w3.org/2000/svg" xmlns:xlink="http://www.w3.org/1999/xlink" x="0px" y="0px"
	 viewBox="0 0 161 198.6" style="enable-background:new 0 0 161 198.6;" xml:space="preserve">
<style type="text/css">
	.st0{fill-rule:evenodd;clip-rule:evenodd;}
</style>
<path fill="white" class="st0" d="M161,178.4c-53.7,0-107.3,0-161,0v-7.2h5.3v-45.7c10.6,0,30.1,0,40.7,0v45.7h4.4v-50.1h-3.7v-5.6L80.5,90
	l33.8,25.5v5.6h-3.7v50.1h4.4v-45.7c10.6,0,30.1,0,40.7,0v45.7h5.3V178.4L161,178.4z M79.1,24.7l-20.3,9.4V41h3.3
	c0,15.6,0,31.1,0,46.7h-3.4V75.3H0.9c0,18.2,0,27.6,0,45.8h41.4v-7.7l38.2-29.1l38.2,29.1v7.7h41.4c0-18.2,0-27.6,0-45.8h-57.9v12.3
	h-3.4c0-15.6,0-31.1,0-46.7h3.3v-6.9l-20.3-9.4V17c2.9-2.2,8-2.2,11.5-0.3c8.2,4.5,15.3-3.7,21.6-8.6C97.1,9.4,98-2,81.9,2.4V0h-2.8
	V24.7L79.1,24.7z M66.5,64.9V41h28v23.9H66.5L66.5,64.9z M64.7,143.7v27.6h13.7v-27.6H64.7L64.7,143.7z M82.6,143.7v27.6h13.7v-27.6
	H82.6L82.6,143.7z M138,150v12.6h11.5V150H138L138,150z M121.2,150v12.6h11.5V150H121.2L121.2,150z M138,131.2v12.6h11.5v-12.6H138
	L138,131.2z M121.2,131.2v12.6h11.5v-12.6H121.2L121.2,131.2z M28.3,150v12.6h11.5V150H28.3L28.3,150z M11.5,150v12.6H23V150H11.5
	L11.5,150z M28.3,131.2v12.6h11.5v-12.6H28.3L28.3,131.2z M11.5,131.2v12.6H23v-12.6H11.5L11.5,131.2z M56.7,181.1h47.7v4.6H56.7
	V181.1L56.7,181.1z M53.5,187.5h54.1v4.6H53.5V187.5L53.5,187.5z M49.8,194h61.3v4.6H49.8V194L49.8,194z M83.6,42.9
	c6.2,2,2.5,6.8,4.8,11.3c1.4,2.6,2.5,2.4,2.5,3.2v1.8c0,0.5-0.4,0.9-0.9,0.9h-9.5h-9.5c-0.5,0-0.9-0.4-0.9-0.9v-1.8
	c0-0.8,1.2-0.6,2.5-3.2c2.4-4.4-1.3-9.2,4.8-11.3C79.4,42.2,81.5,42.2,83.6,42.9L83.6,42.9z M79,61.3c-0.4,1.4-1.7,2.5-3.2,2.5
	c-1.5,0-2.8-1-3.2-2.5H79L79,61.3z M79.9,122c0.1,0,0.4,0.1,0.6,0.1h9.1c0.5,0,1-0.4,1-1c0-0.5-0.4-1-1-1H82V114
	c0-0.7-0.8-1.3-1.5-1.3c-0.7,0-1.5,0.6-1.5,1.3v6.8C79,121.4,79.4,121.9,79.9,122L79.9,122z M80.5,109.8c-6.1,0-11,4.9-11,11
	c0,6.1,4.9,11,11,11c6.1,0,11-4.9,11-11C91.5,114.7,86.6,109.8,80.5,109.8z"/>
</svg>
