<?xml version="1.0" encoding="utf-8"?>
<!-- Generator: Adobe Illustrator 21.0.2, SVG Export Plug-In . SVG Version: 6.00 Build 0)  -->
<svg version="1.1" id="Layer_1" xmlns="http://www.w3.org/2000/svg" xmlns:xlink="http://www.w3.org/1999/xlink" x="0px" y="0px"
	 viewBox="0 0 150.6 140.1" style="enable-background:new 0 0 150.6 140.1;" xml:space="preserve">
<style type="text/css">
	.st0{fill:#FFFFFF;}
</style>
<path class="st0" d="M145.8,114.3L115,86c3.7-7.8,5.8-16.4,5.8-25.6C120.7,27,93.7,0,60.4,0C27,0,0,27,0,60.4
	c0,33.3,27,60.4,60.4,60.4c13.4,0,25.7-4.4,35.7-11.7l29.6,27.2c6.1,5.6,15.5,5.2,21-0.9c2.6-2.9,3.9-6.5,3.9-10.1
	C150.6,121.2,149,117.2,145.8,114.3z M60.4,104.2c-24.2,0-43.8-19.6-43.8-43.8c0-24.2,19.6-43.8,43.8-43.8
	c24.2,0,43.8,19.6,43.8,43.8C104.2,84.6,84.6,104.2,60.4,104.2z"/>
</svg>
