<?xml version="1.0" encoding="utf-8"?>
<!-- Generator: Adobe Illustrator 21.0.2, SVG Export Plug-In . SVG Version: 6.00 Build 0)  -->
<svg version="1.1" id="Layer_1" xmlns="http://www.w3.org/2000/svg" xmlns:xlink="http://www.w3.org/1999/xlink" x="0px" y="0px"
	 viewBox="0 0 32.9 94.9" style="enable-background:new 0 0 32.9 94.9;" xml:space="preserve">
<path fill="white" d="M6.1,42.3c0.4-0.1,0.9-0.2,1.3-0.2c0,0,0.1,0,0.1,0c0.1,0,0.3,0,0.4-0.1c1-0.1,2.1-0.3,3.3-0.4c1.4-0.1,2.8-0.2,4.3-0.2
	c0.4,0,0.8,0,1.2,0c0.1,0,0.3,0,0.4,0c0.8,0,1.6,0,2.5,0.1c0.4,0,0.8,0,1.1,0.1c0.4,0,0.8,0.1,1.2,0.1c0.3,0,0.6,0,0.9,0.1
	c1,0.1,2,0.2,3,0.4c0.5,0.1,0.9,0.1,1.3,0.2c4.6-4.7,2.2-11.8-0.1-15.3c-3.3-5-1.2-9.2-1.2-9.2c-2.9,1.3-3.7,6.9-3.7,6.9
	C22.6,5.6,15.5,0,15.5,0C19.3,16.1,3,21.7,2.2,31.1c-0.5,5.7,1.5,9.4,3.2,11.4C5.7,42.4,5.9,42.4,6.1,42.3z"/>
<path fill="white" d="M29.6,45.4c-0.6-0.2-1.2-0.4-1.9-0.5c-1-0.2-2.1-0.4-3.3-0.6c-0.2,0-0.5-0.1-0.7-0.1c-1-0.1-2-0.2-3-0.3c-0.2,0-0.4,0-0.5,0
	c-0.1,0-0.3,0-0.4,0c-2.9-0.1-5.8-0.1-8.4,0.1c-0.5,0-0.9,0.1-1.3,0.1c-0.8,0.1-1.5,0.2-2.2,0.3c-0.1,0-0.3,0-0.4,0.1
	c-0.7,0.1-1.8,0.3-2.9,0.6C2.4,45.6,0,46.6,0,47.9c0,0.4,1.3,5.4,1.5,6.2l0-0.2v0v0c0,0,0,0,0,0l0,0v0c0-0.1,0-0.2,0.1-0.3
	c0.2-0.6,1-1.2,2.3-1.7c1.5-0.6,3.6-1.1,6.1-1.4c2-0.2,4.1-0.4,6.5-0.4c2.4,0,4.7,0.1,6.7,0.4c2.4,0.3,4.5,0.8,5.9,1.3
	c1.5,0.6,2.4,1.3,2.4,2c0,0,0,0,0,0c0,0,0,0,0,0c0,0,0,0.1,0,0.1c0,0,0,0,0,0.1c0,0,0,0,0,0l1.5-6c0-0.1,0-0.2,0-0.2
	C32.8,46.7,30.8,45.8,29.6,45.4z"/>
<path fill="white" d="M19.5,53.1h-1.8v1.2v0v0v0v31.1v0V87v0v7.9l7.8-35.5l0.9-4.1c0,0-4.8-1.6-6.4-2C19.7,53.2,19.5,53.1,19.5,53.1z"/>
<path fill="white" d="M13.2,53.2c-0.2,0.1-0.4,0.1-0.7,0.2c-0.2,0.1-0.3,0.1-0.5,0.2c-2,0.6-5.3,1.7-5.3,1.7l0.9,4.2l7.8,35.4v-8.4v0V63.8v0v-9.3
	v0v0v0v-1.2h-1.8C13.5,53.1,13.4,53.2,13.2,53.2z"/>
</svg>
